<svg width="80" height="80" viewBox="0 0 80 80" fill="none" xmlns="http://www.w3.org/2000/svg">
<path d="M80 14C79.8333 7.33333 76.3167 4 69.45 4H10.5C3.66667 4 0.166667 7.33333 0 14V69.95C0.166667 76.65 3.66667 80 10.5 80H69.45C76.3167 80 79.8333 76.65 80 69.95V14Z" fill="url(#paint0_linear_201_979)"/>
<path d="M80 10.5C80 3.5 76.4833 0 69.45 0H10.5C3.5 0 0 3.5 0 10.5V14C0.166667 7.33333 3.66667 4 10.5 4H69.45C76.3167 4 79.8333 7.33333 80 14V10.5Z" fill="url(#paint1_linear_201_979)"/>
<path d="M32.1667 37.9615C30.2333 35.9949 27.8833 35.0115 25.1167 35.0115C22.35 35.0115 20 35.9949 18.0667 37.9615C16.1 39.8949 15.1167 42.2449 15.1167 45.0115H35.1167C35.1167 42.2449 34.1333 39.8949 32.1667 37.9615Z" fill="white"/>
<path d="M29.3667 40.7615C28.2 39.5949 26.7833 39.0115 25.1167 39.0115C23.4833 39.0115 22.0833 39.5949 20.9167 40.7615C19.7167 41.9282 19.1167 43.3449 19.1167 45.0115H31.1167C31.1167 43.3449 30.5333 41.9282 29.3667 40.7615Z" fill="#3D465D"/>
<path d="M62.1667 37.9615C60.2333 35.9949 57.8833 35.0115 55.1167 35.0115C52.35 35.0115 50 35.9949 48.0667 37.9615C46.1 39.8949 45.1167 42.2449 45.1167 45.0115H65.1167C65.1167 42.2449 64.1333 39.8949 62.1667 37.9615Z" fill="white"/>
<path d="M59.3667 40.7615C58.2 39.5949 56.7833 39.0115 55.1167 39.0115C53.4833 39.0115 52.0833 39.5949 50.9167 40.7615C49.7167 41.9282 49.1167 43.3449 49.1167 45.0115H61.1167C61.1167 43.3449 60.5333 41.9282 59.3667 40.7615Z" fill="#3D465D"/>
<path d="M14.0667 37.6115L14.8667 40.5115C15 41.0782 15.3 41.4949 15.7667 41.7615C16.2333 42.0282 16.7333 42.0949 17.2667 41.9615L32.7167 37.8115C33.2833 37.6782 33.7 37.3615 33.9667 36.8615C34.2333 36.4282 34.3 35.9282 34.1667 35.3615L33.3667 32.4615C33.2333 31.9282 32.9333 31.5115 32.4667 31.2115C32 30.9782 31.4833 30.9282 30.9167 31.0615L15.4667 35.2115C14.9333 35.3449 14.5333 35.6449 14.2667 36.1115C14 36.5782 13.9333 37.0782 14.0667 37.6115Z" fill="#3D465D"/>
<path d="M46.3167 31.9615C46.55 32.3949 46.95 32.6782 47.5167 32.8115L62.9667 36.9615C63.5 37.1282 64.0167 37.0949 64.5167 36.8615C64.95 36.5615 65.2333 36.1449 65.3667 35.6115L66.1667 32.7115C66.3 32.1449 66.25 31.6449 66.0167 31.2115C65.7167 30.7115 65.3 30.3782 64.7667 30.2115L49.3167 26.0615C48.75 25.9282 48.25 26.0115 47.8167 26.3115C47.3167 26.5449 47 26.9449 46.8667 27.5115L46.0667 30.4115C45.9333 30.9449 46.0167 31.4615 46.3167 31.9615Z" fill="#3D465D"/>
<path d="M50.0667 51.9115C49.6 51.6115 49.0833 51.5449 48.5167 51.7115C47.9833 51.8449 47.5667 52.1282 47.2667 52.5615C47 52.9282 46.6167 53.2782 46.1167 53.6115C44.8833 54.3782 43.4333 54.7615 41.7667 54.7615C41 54.7615 40.2833 54.6949 39.6167 54.5615C39.05 54.4615 38.5333 54.5615 38.0667 54.8615C37.6 55.0949 37.3 55.4949 37.1667 56.0615C37.0333 56.5615 37.1333 57.0449 37.4667 57.5115C37.7333 57.9115 38.1667 58.1782 38.7667 58.3115C39.6667 58.5115 40.6667 58.6115 41.7667 58.6115C44.3333 58.6115 46.55 58.0115 48.4167 56.8115L48.3667 56.8615C49.5 56.1615 50.3333 55.3782 50.8667 54.5115C51.1333 54.0449 51.2 53.5615 51.0667 53.0615C50.9 52.5282 50.5667 52.1449 50.0667 51.9115Z" fill="#3D465D"/>
<defs>
<linearGradient id="paint0_linear_201_979" x1="40" y1="-1.09798e-07" x2="40" y2="80" gradientUnits="userSpaceOnUse">
<stop stop-color="#71CF93"/>
<stop offset="1" stop-color="#59B15C"/>
</linearGradient>
<linearGradient id="paint1_linear_201_979" x1="39.75" y1="-0.25" x2="39.75" y2="43.25" gradientUnits="userSpaceOnUse">
<stop stop-color="#85DFAF"/>
<stop offset="1" stop-color="#69C581"/>
</linearGradient>
</defs>
</svg>
